# xmcd CD database file
#
# Track frame offsets:
#	150
#	13558
#	26800
#	39673
#	50518
#	66330
#	84497
#	95697
#	112252
#	124720
#	140713
#
# Disc length: 2196 seconds
#
# Revision: 0
# Processed by: cddbd v1.5.1PL2 Copyright (c) Steve Scherf et al.
# Submitted via: CDex 1.51
#
DISCID=9f08920b
DTITLE=Mason Proffit - Movin' Towards Happiness
DYEAR=1900
DGENRE=Country
TTITLE0=Michael Dodge
TTITLE1=Hard Luck Woman
TTITLE2=Children
TTITLE3=Hokey Joe Poney
TTITLE4=Flying Arrow
TTITLE5=Old Joe Clark
TTITLE6=Let me know
TTITLE7=melinda
TTITLE8=good friend
TTITLE9=he loves them
TTITLE10=Everybody
EXTD=
EXTT0=
EXTT1=
EXTT2=
EXTT3=
EXTT4=
EXTT5=
EXTT6=
EXTT7=
EXTT8=
EXTT9=
EXTT10=
PLAYORDER=
